<svg width="51" height="51" fill="none" xmlns="http://www.w3.org/2000/svg"><path d="M30 25.5a4.5 4.5 0 1 1-9 0 4.5 4.5 0 0 1 9 0z" fill="#C1AA98"/><path d="M33.044 12H17.956A5.962 5.962 0 0 0 12 17.956v15.088A5.962 5.962 0 0 0 17.956 39h15.088A5.962 5.962 0 0 0 39 33.044V17.956A5.962 5.962 0 0 0 33.044 12zM25.5 32.945c-4.105 0-7.445-3.34-7.445-7.445s3.34-7.445 7.445-7.445 7.445 3.34 7.445 7.445-3.34 7.445-7.445 7.445zm8.537-14.493a1.489 1.489 0 1 1 0-2.977 1.489 1.489 0 0 1 0 2.977z" fill="#3C322A"/><path d="M37.553 0H13.447C6.033 0 0 6.033 0 13.447v24.106C0 44.967 6.033 51 13.447 51h24.106C44.967 51 51 44.967 51 37.553V13.447C51 6.033 44.967 0 37.553 0zm4.482 33.07c0 4.943-4.022 8.965-8.965 8.965H17.93c-4.943 0-8.965-4.022-8.965-8.965V17.93c0-4.943 4.022-8.965 8.965-8.965h15.14c4.943 0 8.965 4.022 8.965 8.965v15.14z" fill="#3C322A"/></svg>