<svg width="51" height="51" viewBox="0 0 51 51" fill="none" xmlns="http://www.w3.org/2000/svg">
<path d="M43.8445 7.15554C39.2302 2.54113 33.0951 0 26.5695 0C20.0439 0 13.9088 2.54113 9.29435 7.15554C4.67995 11.7699 2.13891 17.9049 2.13891 24.4305C2.13891 28.5642 3.18531 32.6263 5.17152 36.2244L0 51L14.7754 45.8286C18.3736 47.8146 22.4357 48.8611 26.5694 48.8611C33.095 48.8611 39.2302 46.3199 43.8444 41.7056C48.4588 37.0912 51 30.9562 51 24.4305C51 17.9048 48.4588 11.7698 43.8445 7.15554ZM38.6469 33.5061L35.8265 36.3265C33.4901 38.663 26.8606 35.8219 21.0194 29.9806C15.1781 24.1393 12.3369 17.51 14.6735 15.1735L17.4938 12.3532C18.0779 11.769 19.025 11.769 19.6091 12.3532L23.1346 15.8786C23.7187 16.4627 23.7187 17.4098 23.1346 17.9939L21.0193 20.1092C23.0711 24.441 26.559 27.9288 30.8908 29.9806L33.0061 27.8653C33.5902 27.2812 34.5373 27.2812 35.1214 27.8653L38.6468 31.3908C39.2311 31.975 39.2311 32.922 38.6469 33.5061Z" fill="#3C322A"/>
</svg>
